<svg version="1" xmlns="http://www.w3.org/2000/svg" width="693.333" height="693.333" viewBox="0 0 520.000000 520.000000"><path d="M140.5 254L82.7 403h-5.2c-5 0-5.2.1-6.2 3.5l-1.1 3.5H80l-1.9 4.7-1.9 4.8-9.6.3c-9.2.3-9.7.4-10.6 2.7-.9 2.4-1.3 2.5-9.3 2.5s-8.4.1-9.5 2.5c-.7 1.4-1.2 2.8-1.2 3 0 .3 15 .5 33.4.5h33.4l1.2-3c1.2-3 1.3-3 9.6-3 8.1 0 8.5-.1 9.4-2.5.9-2.3 1.4-2.4 10.6-2.7l9.6-.3 1.9-4.8 1.9-4.7h-9.8l1.1-3.5c1-3.4 1.2-3.5 6.2-3.5h5.2l20.4-52.5 20.4-52.5H203c30 0 41.6 4.4 48.9 18.7 3.9 7.8 10.7 29.1 20.1 63.3.9 3.6 2.7 10 3.9 14.2 1.1 4.3 2.1 8 2.1 8.3 0 .3-2 .5-4.5.5-4.7 0-5 .4-3.9 4.7.6 2 1.3 2.3 5.9 2.3 5.3 0 5.3 0 5.9 3.6.4 1.9 1 4.2 1.3 5 .4 1.1-1.2 1.4-9 1.4h-9.4l.5 2.5.4 2.5H257c-8.1 0-8.2.1-7.6 2.2.3 1.3.6 2.6.6 3 0 .5 18.2.8 40.4.8h40.5l-.9-3-.9-3h17.1l-.6-2.5-.6-2.5h9.5c8.7 0 9.6-.2 9.1-1.8-.2-.9-.7-3.2-1.1-4.9-.6-3.2-.8-3.3-6.1-3.3-4.7 0-5.4-.3-5.4-1.9 0-1.1-.3-2.6-.6-3.5-.5-1.3.2-1.6 4.5-1.6 2.8 0 5.1-.3 5.1-.6 0-.4-.5-2.3-1-4.3-.6-2-3.4-13.7-6.4-26.1-11.1-46.1-16.5-58-33.5-74.3-4.4-4.2-7.9-7.7-7.7-7.7.2 0 4.1-.7 8.7-1.6 50.8-9.4 88.7-37.3 109.3-80.5 3-6.3 6.6-15.5 8-20.4 2.6-9.1 4.8-24.4 4.1-28.7-.2-1.3-.6-4.7-1-7.7-2.1-18.2-13.7-32.6-31.1-38.6-18.7-6.5-36.8-7.5-131.9-7.5h-79.1l-57.9 149zm208.8-90.8c18.9 6.3 22.4 21.5 10.5 45.8-7.6 15.6-23.6 28.6-39.9 32.5-10.3 2.4-37 3.6-74 3.3l-34.6-.3 16.1-41.8 16.1-41.8 50.5.4c43.2.3 51.2.6 55.3 1.9z"/></svg>